<mxfile host="app.diagrams.net" modified="2020-11-30T12:47:42.058Z" agent="5.0 (Windows NT 10.0; Win64; x64) AppleWebKit/537.36 (KHTML, like Gecko) Chrome/86.0.4240.198 Safari/537.36" etag="ASoowJCSZIHx3_mtxO_9" version="13.10.4" type="github">
  <diagram id="mqiJwLkqohjlCgwhw9_A" name="Page-1">
    <mxGraphModel dx="898" dy="511" grid="1" gridSize="10" guides="1" tooltips="1" connect="1" arrows="1" fold="1" page="1" pageScale="1" pageWidth="850" pageHeight="1100" background="#F1FAEE" math="0" shadow="0">
      <root>
        <mxCell id="0" />
        <mxCell id="1" parent="0" />
        <mxCell id="gIrRUgPA_u_x7N7mq9-M-10" style="edgeStyle=orthogonalEdgeStyle;rounded=0;orthogonalLoop=1;jettySize=auto;html=1;exitX=0.75;exitY=0;exitDx=0;exitDy=0;entryX=0.5;entryY=1;entryDx=0;entryDy=0;strokeColor=#457B9D;fontColor=#1D3557;labelBackgroundColor=#F1FAEE;" edge="1" parent="1" source="gIrRUgPA_u_x7N7mq9-M-1" target="gIrRUgPA_u_x7N7mq9-M-9">
          <mxGeometry relative="1" as="geometry" />
        </mxCell>
        <mxCell id="gIrRUgPA_u_x7N7mq9-M-11" style="edgeStyle=orthogonalEdgeStyle;rounded=0;orthogonalLoop=1;jettySize=auto;html=1;exitX=0.75;exitY=0;exitDx=0;exitDy=0;entryX=0.5;entryY=1;entryDx=0;entryDy=0;strokeColor=#457B9D;fontColor=#1D3557;labelBackgroundColor=#F1FAEE;" edge="1" parent="1" source="gIrRUgPA_u_x7N7mq9-M-1" target="gIrRUgPA_u_x7N7mq9-M-3">
          <mxGeometry relative="1" as="geometry" />
        </mxCell>
        <mxCell id="gIrRUgPA_u_x7N7mq9-M-12" style="edgeStyle=orthogonalEdgeStyle;rounded=0;orthogonalLoop=1;jettySize=auto;html=1;exitX=0.75;exitY=0;exitDx=0;exitDy=0;entryX=0.5;entryY=1;entryDx=0;entryDy=0;strokeColor=#457B9D;fontColor=#1D3557;labelBackgroundColor=#F1FAEE;" edge="1" parent="1" source="gIrRUgPA_u_x7N7mq9-M-1" target="gIrRUgPA_u_x7N7mq9-M-4">
          <mxGeometry relative="1" as="geometry" />
        </mxCell>
        <mxCell id="gIrRUgPA_u_x7N7mq9-M-13" style="edgeStyle=orthogonalEdgeStyle;rounded=0;orthogonalLoop=1;jettySize=auto;html=1;exitX=0.75;exitY=0;exitDx=0;exitDy=0;entryX=0.5;entryY=1;entryDx=0;entryDy=0;strokeColor=#457B9D;fontColor=#1D3557;labelBackgroundColor=#F1FAEE;" edge="1" parent="1" source="gIrRUgPA_u_x7N7mq9-M-1" target="gIrRUgPA_u_x7N7mq9-M-6">
          <mxGeometry relative="1" as="geometry" />
        </mxCell>
        <mxCell id="gIrRUgPA_u_x7N7mq9-M-14" style="edgeStyle=orthogonalEdgeStyle;rounded=0;orthogonalLoop=1;jettySize=auto;html=1;exitX=1;exitY=1;exitDx=0;exitDy=0;entryX=0.5;entryY=0;entryDx=0;entryDy=0;strokeColor=#457B9D;fontColor=#1D3557;labelBackgroundColor=#F1FAEE;" edge="1" parent="1" source="gIrRUgPA_u_x7N7mq9-M-1" target="gIrRUgPA_u_x7N7mq9-M-7">
          <mxGeometry relative="1" as="geometry" />
        </mxCell>
        <mxCell id="gIrRUgPA_u_x7N7mq9-M-15" style="edgeStyle=orthogonalEdgeStyle;rounded=0;orthogonalLoop=1;jettySize=auto;html=1;exitX=0.5;exitY=1;exitDx=0;exitDy=0;entryX=0.5;entryY=0;entryDx=0;entryDy=0;strokeColor=#457B9D;fontColor=#1D3557;labelBackgroundColor=#F1FAEE;" edge="1" parent="1" source="gIrRUgPA_u_x7N7mq9-M-1" target="gIrRUgPA_u_x7N7mq9-M-8">
          <mxGeometry relative="1" as="geometry" />
        </mxCell>
        <mxCell id="gIrRUgPA_u_x7N7mq9-M-1" value="Gas Stove" style="rounded=0;whiteSpace=wrap;html=1;fillColor=#A8DADC;strokeColor=#457B9D;fontColor=#1D3557;" vertex="1" parent="1">
          <mxGeometry x="320" y="200" width="200" height="120" as="geometry" />
        </mxCell>
        <mxCell id="gIrRUgPA_u_x7N7mq9-M-3" value="Raspberry Pi" style="rounded=0;whiteSpace=wrap;html=1;fillColor=#A8DADC;strokeColor=#457B9D;fontColor=#1D3557;" vertex="1" parent="1">
          <mxGeometry x="440" y="80" width="80" height="40" as="geometry" />
        </mxCell>
        <mxCell id="gIrRUgPA_u_x7N7mq9-M-4" value="Temperature Sensor" style="rounded=0;whiteSpace=wrap;html=1;fillColor=#A8DADC;strokeColor=#457B9D;fontColor=#1D3557;" vertex="1" parent="1">
          <mxGeometry x="560" y="80" width="80" height="40" as="geometry" />
        </mxCell>
        <mxCell id="gIrRUgPA_u_x7N7mq9-M-6" value="Buzzer" style="ellipse;whiteSpace=wrap;html=1;aspect=fixed;fillColor=#A8DADC;strokeColor=#457B9D;fontColor=#1D3557;" vertex="1" parent="1">
          <mxGeometry x="680" y="80" width="40" height="40" as="geometry" />
        </mxCell>
        <mxCell id="gIrRUgPA_u_x7N7mq9-M-7" value="Digital LCD Display" style="rounded=0;whiteSpace=wrap;html=1;fillColor=#A8DADC;strokeColor=#457B9D;fontColor=#1D3557;" vertex="1" parent="1">
          <mxGeometry x="560" y="360" width="120" height="40" as="geometry" />
        </mxCell>
        <mxCell id="gIrRUgPA_u_x7N7mq9-M-8" value="Keyboard" style="rounded=0;whiteSpace=wrap;html=1;fillColor=#A8DADC;strokeColor=#457B9D;fontColor=#1D3557;" vertex="1" parent="1">
          <mxGeometry x="380" y="360" width="80" height="40" as="geometry" />
        </mxCell>
        <mxCell id="gIrRUgPA_u_x7N7mq9-M-9" value="Battery" style="rounded=0;whiteSpace=wrap;html=1;fillColor=#A8DADC;strokeColor=#457B9D;fontColor=#1D3557;" vertex="1" parent="1">
          <mxGeometry x="320" y="80" width="80" height="40" as="geometry" />
        </mxCell>
      </root>
    </mxGraphModel>
  </diagram>
</mxfile>
